<svg width="361" height="100" viewBox="0 0 361 100" fill="none" xmlns="http://www.w3.org/2000/svg">
<mask id="path-1-inside-1_1_1212" fill="white">
<path fill-rule="evenodd" clip-rule="evenodd" d="M251.012 0H12C5.37258 0 0 5.37258 0 12V88C0 94.6274 5.37257 100 12 100H251.012C251.004 99.8343 251 99.6676 251 99.5C251 93.701 255.701 89 261.5 89C267.299 89 272 93.701 272 99.5C272 99.6676 271.996 99.8343 271.988 100H349C355.627 100 361 94.6274 361 88V12C361 5.37258 355.627 0 349 0H271.988C271.727 5.56682 267.131 10 261.5 10C255.869 10 251.273 5.56682 251.012 0Z"/>
</mask>
<path fill-rule="evenodd" clip-rule="evenodd" d="M251.012 0H12C5.37258 0 0 5.37258 0 12V88C0 94.6274 5.37257 100 12 100H251.012C251.004 99.8343 251 99.6676 251 99.5C251 93.701 255.701 89 261.5 89C267.299 89 272 93.701 272 99.5C272 99.6676 271.996 99.8343 271.988 100H349C355.627 100 361 94.6274 361 88V12C361 5.37258 355.627 0 349 0H271.988C271.727 5.56682 267.131 10 261.5 10C255.869 10 251.273 5.56682 251.012 0Z" fill="white"/>
<path d="M251.012 0L252.011 -0.0468283L251.966 -1H251.012V0ZM251.012 100V101H252.06L252.011 99.9532L251.012 100ZM271.988 100L270.989 99.9531L270.94 101H271.988V100ZM271.988 0V-1H271.034L270.989 -0.0468311L271.988 0ZM251.012 -1H12V1H251.012V-1ZM12 -1C4.8203 -1 -1 4.8203 -1 12H1C1 5.92487 5.92487 1 12 1V-1ZM-1 12V88H1V12H-1ZM-1 88C-1 95.1797 4.82029 101 12 101V99C5.92486 99 1 94.0751 1 88H-1ZM12 101H251.012V99H12V101ZM252.011 99.9532C252.004 99.8031 252 99.652 252 99.5H250C250 99.6832 250.004 99.8655 250.013 100.047L252.011 99.9532ZM252 99.5C252 94.2533 256.253 90 261.5 90V88C255.149 88 250 93.1487 250 99.5H252ZM261.5 90C266.747 90 271 94.2533 271 99.5H273C273 93.1487 267.851 88 261.5 88V90ZM271 99.5C271 99.6521 270.996 99.8031 270.989 99.9531L272.987 100.047C272.996 99.8655 273 99.6832 273 99.5H271ZM271.988 101H349V99H271.988V101ZM349 101C356.18 101 362 95.1797 362 88H360C360 94.0751 355.075 99 349 99V101ZM362 88V12H360V88H362ZM362 12C362 4.8203 356.18 -1 349 -1V1C355.075 1 360 5.92487 360 12H362ZM349 -1H271.988V1H349V-1ZM270.989 -0.0468311C270.753 4.98902 266.595 9 261.5 9V11C267.668 11 272.701 6.14461 272.987 0.0468311L270.989 -0.0468311ZM261.5 9C256.405 9 252.247 4.98902 252.011 -0.0468283L250.013 0.0468283C250.299 6.14462 255.332 11 261.5 11V9Z" fill="#E6E1FE" mask="url(#path-1-inside-1_1_1212)"/>
</svg>
