<svg width="172" height="198" viewBox="0 0 172 198" fill="none" xmlns="http://www.w3.org/2000/svg">
<mask id="path-1-inside-1_1_1411" fill="white">
<path fill-rule="evenodd" clip-rule="evenodd" d="M0 12C0 5.37258 5.37258 0 12 0H160C166.627 0 172 5.37258 172 12V124.2C167.436 125.127 164 129.162 164 134C164 138.838 167.436 142.873 172 143.8V186C172 192.627 166.627 198 160 198H12C5.37258 198 0 192.627 0 186V143.8C4.56448 142.873 8 138.838 8 134C8 129.162 4.56448 125.127 0 124.2V12Z"/>
</mask>
<path fill-rule="evenodd" clip-rule="evenodd" d="M0 12C0 5.37258 5.37258 0 12 0H160C166.627 0 172 5.37258 172 12V124.2C167.436 125.127 164 129.162 164 134C164 138.838 167.436 142.873 172 143.8V186C172 192.627 166.627 198 160 198H12C5.37258 198 0 192.627 0 186V143.8C4.56448 142.873 8 138.838 8 134C8 129.162 4.56448 125.127 0 124.2V12Z" fill="white"/>
<path d="M172 124.2L172.199 125.18L173 125.017V124.2H172ZM172 143.8H173V142.983L172.199 142.82L172 143.8ZM0 143.8L-0.198933 142.82L-1 142.983V143.8H0ZM0 124.2H-1V125.017L-0.198933 125.18L0 124.2ZM12 -1C4.8203 -1 -1 4.8203 -1 12H1C1 5.92487 5.92487 1 12 1V-1ZM160 -1H12V1H160V-1ZM173 12C173 4.8203 167.18 -1 160 -1V1C166.075 1 171 5.92487 171 12H173ZM173 124.2V12H171V124.2H173ZM165 134C165 129.647 168.091 126.014 172.199 125.18L171.801 123.22C166.78 124.239 163 128.677 163 134H165ZM172.199 142.82C168.091 141.986 165 138.353 165 134H163C163 139.323 166.78 143.761 171.801 144.78L172.199 142.82ZM173 186V143.8H171V186H173ZM160 199C167.18 199 173 193.18 173 186H171C171 192.075 166.075 197 160 197V199ZM12 199H160V197H12V199ZM-1 186C-1 193.18 4.82029 199 12 199V197C5.92486 197 1 192.075 1 186H-1ZM-1 143.8V186H1V143.8H-1ZM7 134C7 138.353 3.90868 141.986 -0.198933 142.82L0.198933 144.78C5.22028 143.761 9 139.323 9 134H7ZM-0.198933 125.18C3.90868 126.014 7 129.647 7 134H9C9 128.677 5.22028 124.239 0.198933 123.22L-0.198933 125.18ZM-1 12V124.2H1V12H-1Z" fill="#E6E1FE" mask="url(#path-1-inside-1_1_1411)"/>
</svg>
