<svg width="25" height="24" viewBox="0 0 25 24" fill="none" xmlns="http://www.w3.org/2000/svg">
<path d="M22.3 8.52V3.98C22.3 2.57 21.66 2 20.07 2H16.03C14.44 2 13.8 2.57 13.8 3.98V8.51C13.8 9.93 14.44 10.49 16.03 10.49H20.07C21.66 10.5 22.3 9.93 22.3 8.52Z" stroke="#757281" stroke-width="1.5" stroke-linecap="round" stroke-linejoin="round"/>
<path opacity="0.4" d="M22.3 19.77V15.73C22.3 14.14 21.66 13.5 20.07 13.5H16.03C14.44 13.5 13.8 14.14 13.8 15.73V19.77C13.8 21.36 14.44 22 16.03 22H20.07C21.66 22 22.3 21.36 22.3 19.77Z" stroke="#757281" stroke-width="1.5" stroke-linecap="round" stroke-linejoin="round"/>
<path opacity="0.4" d="M10.8 8.52V3.98C10.8 2.57 10.16 2 8.57005 2H4.53005C2.94005 2 2.30005 2.57 2.30005 3.98V8.51C2.30005 9.93 2.94005 10.49 4.53005 10.49H8.57005C10.16 10.5 10.8 9.93 10.8 8.52Z" stroke="#757281" stroke-width="1.5" stroke-linecap="round" stroke-linejoin="round"/>
<path d="M10.8 19.77V15.73C10.8 14.14 10.16 13.5 8.57005 13.5H4.53005C2.94005 13.5 2.30005 14.14 2.30005 15.73V19.77C2.30005 21.36 2.94005 22 4.53005 22H8.57005C10.16 22 10.8 21.36 10.8 19.77Z" stroke="#757281" stroke-width="1.5" stroke-linecap="round" stroke-linejoin="round"/>
</svg>
