<svg width="24" height="24" viewBox="0 0 24 24" fill="none" xmlns="http://www.w3.org/2000/svg">
<path opacity="0.4" d="M16.5197 5.6499L13.4197 3.2499C13.0197 2.8499 12.1197 2.6499 11.5197 2.6499H7.71973C6.51973 2.6499 5.21973 3.5499 4.91973 4.7499L2.51973 12.0499C2.01973 13.4499 2.91973 14.6499 4.41973 14.6499H8.41973C9.01973 14.6499 9.51973 15.1499 9.41973 15.8499L8.91973 19.0499C8.71973 19.9499 9.31973 20.9499 10.2197 21.2499C11.0197 21.5499 12.0197 21.1499 12.4197 20.5499L16.5197 14.4499" stroke="#1B1472" stroke-width="1.5" stroke-miterlimit="10"/>
<path d="M21.6198 5.64988V15.4499C21.6198 16.8499 21.0198 17.3499 19.6198 17.3499H18.6198C17.2198 17.3499 16.6198 16.8499 16.6198 15.4499V5.64988C16.6198 4.24988 17.2198 3.74988 18.6198 3.74988H19.6198C21.0198 3.74988 21.6198 4.24988 21.6198 5.64988Z" stroke="#1B1472" stroke-width="1.5" stroke-linecap="round" stroke-linejoin="round"/>
</svg>
