<svg width="25" height="24" viewBox="0 0 25 24" fill="none" xmlns="http://www.w3.org/2000/svg">
<path d="M22.1 22.75H2.10004C1.69004 22.75 1.35004 22.41 1.35004 22C1.35004 21.59 1.69004 21.25 2.10004 21.25H22.1C22.51 21.25 22.85 21.59 22.85 22C22.85 22.41 22.51 22.75 22.1 22.75Z" fill="#4034AB"/>
<path opacity="0.4" d="M21.1 9.97999V22H3.05005L3.10005 9.96998C3.10005 9.35998 3.38005 8.78003 3.87005 8.40003L10.87 2.96003C11.59 2.39003 12.61 2.39003 13.33 2.96003L14.67 4.00001L19.1 7.44001L20.3301 8.40003C20.8201 8.78003 21.1 9.35999 21.1 9.97999Z" fill="#1B1472"/>
<path d="M13.1 17H11.1C10.27 17 9.60004 17.67 9.60004 18.5V22H14.6V18.5C14.6 17.67 13.93 17 13.1 17Z" fill="#4034AB"/>
<path d="M9.60004 13.75H7.60004C7.05004 13.75 6.60004 13.3 6.60004 12.75V11.25C6.60004 10.7 7.05004 10.25 7.60004 10.25H9.60004C10.15 10.25 10.6 10.7 10.6 11.25V12.75C10.6 13.3 10.15 13.75 9.60004 13.75Z" fill="#4034AB"/>
<path d="M16.6 13.75H14.6C14.05 13.75 13.6 13.3 13.6 12.75V11.25C13.6 10.7 14.05 10.25 14.6 10.25H16.6C17.15 10.25 17.6 10.7 17.6 11.25V12.75C17.6 13.3 17.15 13.75 16.6 13.75Z" fill="#4034AB"/>
<path d="M19.1 7.44L14.67 4H18.08C18.63 4 19.08 4.43999 19.08 4.98999L19.1 7.44Z" fill="#4034AB"/>
</svg>
