<svg width="127" height="146" viewBox="0 0 127 146" fill="none" xmlns="http://www.w3.org/2000/svg">
<mask id="path-1-inside-1_1_1317" fill="white">
<path fill-rule="evenodd" clip-rule="evenodd" d="M0.267456 8.00001C0.267456 3.58173 3.84918 0 8.26746 0H119C123.418 0 127 3.58172 127 8V91.5127C123.637 92.1954 121.105 95.1688 121.105 98.7335C121.105 102.298 123.637 105.272 127 105.954V137.89C127 142.308 123.418 145.89 119 145.89H8.26746C3.84919 145.89 0.267456 142.308 0.267456 137.89V105.954C3.63064 105.272 6.16199 102.298 6.16199 98.7335C6.16199 95.1688 3.63064 92.1954 0.267456 91.5127V8.00001Z"/>
</mask>
<path fill-rule="evenodd" clip-rule="evenodd" d="M0.267456 8.00001C0.267456 3.58173 3.84918 0 8.26746 0H119C123.418 0 127 3.58172 127 8V91.5127C123.637 92.1954 121.105 95.1688 121.105 98.7335C121.105 102.298 123.637 105.272 127 105.954V137.89C127 142.308 123.418 145.89 119 145.89H8.26746C3.84919 145.89 0.267456 142.308 0.267456 137.89V105.954C3.63064 105.272 6.16199 102.298 6.16199 98.7335C6.16199 95.1688 3.63064 92.1954 0.267456 91.5127V8.00001Z" fill="white"/>
<path d="M127 91.5127L127.199 92.4927L128 92.3301V91.5127H127ZM127 105.954H128V105.137L127.199 104.974L127 105.954ZM0.267456 105.954L0.0685232 104.974L-0.732544 105.137V105.954H0.267456ZM0.267456 91.5127H-0.732544V92.3301L0.0685232 92.4927L0.267456 91.5127ZM8.26746 -1C3.29689 -1 -0.732544 3.02945 -0.732544 8.00001H1.26746C1.26746 4.13401 4.40146 1 8.26746 1V-1ZM119 -1H8.26746V1H119V-1ZM128 8C128 3.02944 123.971 -1 119 -1V1C122.866 1 126 4.13401 126 8H128ZM128 91.5127V8H126V91.5127H128ZM122.105 98.7335C122.105 95.6538 124.293 93.0827 127.199 92.4927L126.801 90.5327C122.981 91.3081 120.105 94.6839 120.105 98.7335H122.105ZM127.199 104.974C124.293 104.384 122.105 101.813 122.105 98.7335H120.105C120.105 102.783 122.981 106.159 126.801 106.934L127.199 104.974ZM128 137.89V105.954H126V137.89H128ZM119 146.89C123.971 146.89 128 142.86 128 137.89H126C126 141.756 122.866 144.89 119 144.89V146.89ZM8.26746 146.89H119V144.89H8.26746V146.89ZM-0.732544 137.89C-0.732544 142.86 3.2969 146.89 8.26746 146.89V144.89C4.40147 144.89 1.26746 141.756 1.26746 137.89H-0.732544ZM-0.732544 105.954V137.89H1.26746V105.954H-0.732544ZM5.16199 98.7335C5.16199 101.813 2.97484 104.384 0.0685232 104.974L0.466389 106.934C4.28644 106.159 7.16199 102.783 7.16199 98.7335H5.16199ZM0.0685232 92.4927C2.97484 93.0827 5.16199 95.6538 5.16199 98.7335H7.16199C7.16199 94.6839 4.28644 91.3081 0.466389 90.5327L0.0685232 92.4927ZM-0.732544 8.00001V91.5127H1.26746V8.00001H-0.732544Z" fill="#E6E1FE" mask="url(#path-1-inside-1_1_1317)"/>
</svg>
