<svg width="361" height="100" viewBox="0 0 361 100" fill="none" xmlns="http://www.w3.org/2000/svg">
<mask id="path-1-inside-1_1_1251" fill="white">
<path fill-rule="evenodd" clip-rule="evenodd" d="M103.2 0H12C5.37258 0 0 5.37258 0 12V88C0 94.6274 5.37257 100 12 100H103.2C104.127 96.1963 108.162 93.3333 113 93.3333C117.838 93.3333 121.873 96.1963 122.8 100H349C355.627 100 361 94.6274 361 88V12C361 5.37258 355.627 0 349 0H122.8C121.873 3.80374 117.838 6.66668 113 6.66668C108.162 6.66668 104.127 3.80374 103.2 0Z"/>
</mask>
<path fill-rule="evenodd" clip-rule="evenodd" d="M103.2 0H12C5.37258 0 0 5.37258 0 12V88C0 94.6274 5.37257 100 12 100H103.2C104.127 96.1963 108.162 93.3333 113 93.3333C117.838 93.3333 121.873 96.1963 122.8 100H349C355.627 100 361 94.6274 361 88V12C361 5.37258 355.627 0 349 0H122.8C121.873 3.80374 117.838 6.66668 113 6.66668C108.162 6.66668 104.127 3.80374 103.2 0Z" fill="white"/>
<path d="M103.2 0L104.172 -0.236666L103.986 -1H103.2V0ZM103.2 100V101H103.986L104.172 100.237L103.2 100ZM122.8 100L121.828 100.237L122.014 101H122.8V100ZM122.8 0V-1H122.014L121.828 -0.236666L122.8 0ZM103.2 -1H12V1H103.2V-1ZM12 -1C4.8203 -1 -1 4.8203 -1 12H1C1 5.92487 5.92487 1 12 1V-1ZM-1 12V88H1V12H-1ZM-1 88C-1 95.1797 4.82029 101 12 101V99C5.92486 99 1 94.0751 1 88H-1ZM12 101H103.2V99H12V101ZM104.172 100.237C104.965 96.9802 108.513 94.3333 113 94.3333V92.3333C107.812 92.3333 103.288 95.4123 102.228 99.7633L104.172 100.237ZM113 94.3333C117.487 94.3333 121.035 96.9802 121.828 100.237L123.772 99.7633C122.712 95.4123 118.188 92.3333 113 92.3333V94.3333ZM122.8 101H349V99H122.8V101ZM349 101C356.18 101 362 95.1797 362 88H360C360 94.0751 355.075 99 349 99V101ZM362 88V12H360V88H362ZM362 12C362 4.8203 356.18 -1 349 -1V1C355.075 1 360 5.92487 360 12H362ZM349 -1H122.8V1H349V-1ZM121.828 -0.236666C121.035 3.01983 117.487 5.66668 113 5.66668V7.66668C118.188 7.66668 122.712 4.58765 123.772 0.236666L121.828 -0.236666ZM113 5.66668C108.513 5.66668 104.965 3.01983 104.172 -0.236666L102.228 0.236666C103.288 4.58765 107.812 7.66668 113 7.66668V5.66668Z" fill="#EAE7F2" mask="url(#path-1-inside-1_1_1251)"/>
</svg>
